<svg width="1917" height="897" viewBox="0 0 1917 897" fill="none" xmlns="http://www.w3.org/2000/svg">
<path d="M1644.55 375.672C1619.84 209.181 1380.94 104.692 1201.92 107.79C995.623 111.38 918.705 257.001 761.446 213.688C617.938 174.211 608.678 32.6803 503.217 10.9392C406.297 -9.03673 253.614 77.3889 3.62959 502.451" stroke="url(#paint0_linear_3141_37746)" stroke-miterlimit="10"/>
<path d="M15.7704 521.155C262.723 102.234 415.474 12.5012 513.746 28.6744C586.58 40.7587 615.02 109.354 672.261 162.783C700.835 190.291 735.902 210.385 774.311 221.261C900.125 256.981 974.525 176.011 1108.55 140.724C1142.71 131.627 1177.83 126.515 1213.21 125.492C1392.94 119.717 1629.11 210.131 1657.46 370.536" stroke="url(#paint1_linear_3141_37746)" stroke-miterlimit="10"/>
<path d="M27.9417 539.802C271.863 127.05 424.595 34.0397 524.014 46.44C597.094 55.5614 627.179 120.87 684.521 171.567C713.771 198.077 748.782 217.664 786.886 228.835C910.892 265.169 985.309 192.192 1119.81 158.513C1153.99 149.882 1188.98 144.759 1224.23 143.225C1404.71 135.318 1638.11 211.083 1670.11 365.401" stroke="url(#paint2_linear_3141_37746)" stroke-miterlimit="10"/>
<path d="M40.0825 558.391C280.914 151.896 433.716 55.6356 534.397 64.1762C607.782 70.3918 639.395 132.356 696.926 180.35C726.788 205.846 761.718 224.938 799.489 236.409C921.804 273.356 995.975 208.346 1131.1 176.301C1165.31 168.062 1200.21 162.897 1235.38 160.871C1416.57 150.516 1647.2 211.948 1682.84 360.179" stroke="url(#paint3_linear_3141_37746)" stroke-miterlimit="10"/>
<path d="M52.2239 577.124C290.024 176.712 442.777 77.2609 544.809 81.9412C618.411 85.2803 651.7 143.9 709.39 189.104C739.885 213.599 774.797 232.217 812.296 243.983C932.921 281.542 1006.93 224.526 1142.73 194.088C1176.91 186.319 1211.65 181.151 1246.64 178.631C1428.58 165.828 1656.43 212.956 1695.75 355.101" stroke="url(#paint4_linear_3141_37746)" stroke-miterlimit="10"/>
<path d="M64.2482 595.8C299.104 201.529 451.911 96.0966 555.221 99.6773C628.964 102.153 664.003 155.243 721.795 197.887C752.909 221.337 787.8 239.479 825.015 251.557C943.95 289.729 1017.75 240.707 1154.02 211.906C1188.19 204.531 1222.81 199.33 1257.66 196.335C1440.35 180.969 1665.43 213.88 1708.4 349.966" stroke="url(#paint5_linear_3141_37746)" stroke-miterlimit="10"/>
<path d="M76.5361 614.475C308.214 226.374 460.903 120.713 565.604 117.27C639.555 115.202 676.366 166.758 734.23 206.699C765.927 229.096 800.804 246.773 837.736 259.159C954.979 297.945 1028.65 256.889 1165.43 229.723C1199.59 222.777 1234.1 217.562 1268.8 214.097C1452.23 196.282 1674.55 214.774 1721.16 344.859" stroke="url(#paint6_linear_3141_37746)" stroke-miterlimit="10"/>
<path d="M88.6769 633.151C317.236 251.191 469.935 142.281 576.017 135.179C650.125 130.119 688.785 178.014 746.664 215.453C778.919 236.776 813.795 253.978 850.455 266.647C965.978 306.074 1039.52 273.041 1176.83 247.425C1208.79 241.502 1242.9 235.796 1279.95 231.714C1464.15 211.365 1683.67 215.754 1733.92 339.695" stroke="url(#paint7_linear_3141_37746)" stroke-miterlimit="10"/>
<path d="M100.818 651.826C326.404 276.036 478.969 164.165 586.4 152.858C660.697 145.066 701.235 189.299 759.157 224.179C791.971 244.415 826.867 261.18 863.262 274.192C977.095 314.232 1050.44 289.136 1188.33 265.213C1220.43 259.634 1254.46 253.986 1291.21 249.417C1475.92 226.564 1692.78 216.705 1746.69 334.531" stroke="url(#paint8_linear_3141_37746)" stroke-miterlimit="10"/>
<path d="M112.99 670.473C335.515 300.853 488.004 185.992 596.814 170.681C671.271 160.185 713.831 200.64 771.506 232.991C804.835 252.13 839.746 268.465 875.867 281.824C988.038 322.477 1061.23 305.374 1199.65 282.945C1231.75 277.71 1265.81 272.063 1302.26 267.034C1487.92 241.531 1701.9 217.484 1759.45 329.252" stroke="url(#paint9_linear_3141_37746)" stroke-miterlimit="10"/>
<path d="M125.131 689.148C344.595 325.67 497.038 207.876 607.139 188.418C681.755 175.247 726.221 211.868 783.881 241.804C817.721 259.802 852.671 275.698 888.527 289.398C998.979 330.664 1072.01 321.528 1211 300.877C1243.25 296.045 1277.21 290.369 1313.35 284.911C1499.75 256.758 1710.93 218.58 1772.19 324.261" stroke="url(#paint10_linear_3141_37746)" stroke-miterlimit="10"/>
<path d="M137.272 707.824C353.704 350.516 506.13 229.76 617.609 206.154C692.414 190.337 738.815 223.065 796.345 250.587C829.415 266.394 863.275 282.341 901.305 296.972C1010.07 338.822 1082.94 337.709 1222.46 318.666C1254.8 314.206 1288.71 308.502 1324.6 302.614C1511.76 271.812 1720.17 219.503 1785.04 319.126" stroke="url(#paint11_linear_3141_37746)" stroke-miterlimit="10"/>
<path d="M149.414 726.499C362.816 375.447 515.02 251.703 627.993 223.919C702.988 205.427 751.411 234.205 808.781 259.37C842.634 274.224 876.579 289.711 914.026 304.546C1021.1 347.095 1093.78 353.861 1233.87 336.454C1266.3 332.397 1300.18 326.664 1335.69 320.318C1523.56 286.809 1729.23 220.426 1797.74 313.991" stroke="url(#paint12_linear_3141_37746)" stroke-miterlimit="10"/>
<path d="M161.497 745.175C371.896 400.178 524.23 273.673 638.377 241.685C713.561 220.604 764.005 245.317 821.215 268.182C855.881 282.026 889.882 297.081 926.629 312.15C1032.04 355.226 1104.51 370.072 1245.27 354.3C1277.82 350.588 1311.61 344.826 1346.83 338.08C1535.44 301.807 1738.34 221.349 1810.5 308.856" stroke="url(#paint13_linear_3141_37746)" stroke-miterlimit="10"/>
<path d="M173.728 763.822C381.007 424.995 533.238 295.702 648.791 259.422C724.193 235.724 776.629 256.343 833.622 276.937C869.1 289.742 903.215 304.422 939.467 319.695C1043.13 363.384 1115.5 386.196 1256.68 372.061C1290.72 368.302 1324.54 362.831 1358 355.669C1547.3 316.775 1747.55 222.329 1823.27 303.693" stroke="url(#paint14_linear_3141_37746)" stroke-miterlimit="10"/>
<path d="M185.869 782.497C390.117 449.841 542.476 317.643 659.086 277.16C734.707 250.872 789.164 267.34 846.086 285.721C882.375 297.457 916.547 311.764 952.186 327.27C1054.18 371.572 1126.37 402.377 1268.03 389.85C1302.04 386.527 1335.79 381.052 1369.09 373.46C1559.16 331.572 1756.58 223.254 1836.06 298.443" stroke="url(#paint15_linear_3141_37746)" stroke-miterlimit="10"/>
<path d="M198.01 801.173C399.197 474.658 551.717 339.785 669.586 294.896C745.368 266.078 801.874 278.279 858.491 294.476C895.592 305.115 929.821 319.134 964.877 334.844C1065.15 379.759 1137.21 418.53 1279.49 407.638C1313.47 404.713 1347.17 399.205 1380.29 391.163C1570.98 346.569 1765.7 224.206 1848.82 293.424" stroke="url(#paint16_linear_3141_37746)" stroke-miterlimit="10"/>
<path d="M210.184 819.848C408.311 499.621 560.726 361.846 679.972 312.665C756.061 281.258 814.499 289.165 870.899 303.264C908.928 312.748 943.126 326.479 977.599 342.422C1076.19 387.892 1148.05 434.715 1290.9 425.459C1324.85 422.914 1358.49 417.372 1391.43 408.899C1582.81 361.455 1774.82 225.134 1861.59 288.293" stroke="url(#paint17_linear_3141_37746)" stroke-miterlimit="10"/>
<path d="M222.326 838.524C417.275 524.326 569.908 383.963 690.386 330.521C766.722 296.582 827.092 300.137 883.335 312.224C922.088 320.64 956.488 334.025 990.32 350.173C1087.22 396.313 1158.92 451.072 1302.3 443.366C1336.22 441.201 1369.82 435.624 1402.58 426.721C1594.64 376.399 1784.08 226.263 1874.35 283.278" stroke="url(#paint18_linear_3141_37746)" stroke-miterlimit="10"/>
<path d="M234.469 857.2C426.502 549.172 579.12 406.08 700.769 348.175C777.412 311.676 839.685 310.821 895.769 320.839C935.332 327.928 969.761 341.226 1003.04 357.636C1098.22 404.389 1169.77 467.112 1313.71 461.099C1347.59 459.33 1381.15 453.716 1413.72 444.37C1606.44 391.083 1793.05 227.018 1887.11 278.033" stroke="url(#paint19_linear_3141_37746)" stroke-miterlimit="10"/>
<path d="M246.643 875.846C435.615 573.991 588.334 428.34 711.068 365.916C787.988 326.914 852.133 321.592 908.06 329.627C948.433 335.418 982.949 348.572 1015.61 365.128C1109.13 412.522 1180.52 483.239 1325 478.834C1358.85 477.43 1392.38 471.78 1424.78 462.02C1618 405.539 1802.05 227.976 1899.82 272.874" stroke="url(#paint20_linear_3141_37746)" stroke-miterlimit="10"/>
<path d="M258.757 894.522C560.475 414.602 775.168 322.526 920.612 338.414C1079.39 355.753 1140.78 500.358 1336.52 496.653C1566.15 492.275 1794.1 222.326 1912.64 267.744" stroke="url(#paint21_linear_3141_37746)" stroke-miterlimit="10"/>
<defs>
<linearGradient id="paint0_linear_3141_37746" x1="821.591" y1="6.42501" x2="824.254" y2="498.005" gradientUnits="userSpaceOnUse">
<stop stop-color="#515151"/>
<stop offset="1" stop-color="#515151" stop-opacity="0"/>
</linearGradient>
<linearGradient id="paint1_linear_3141_37746" x1="834.184" y1="25.0549" x2="836.848" y2="516.706" gradientUnits="userSpaceOnUse">
<stop stop-color="#515151"/>
<stop offset="1" stop-color="#515151" stop-opacity="0"/>
</linearGradient>
<linearGradient id="paint2_linear_3141_37746" x1="846.661" y1="43.5432" x2="849.326" y2="535.351" gradientUnits="userSpaceOnUse">
<stop stop-color="#515151"/>
<stop offset="1" stop-color="#515151" stop-opacity="0"/>
</linearGradient>
<linearGradient id="paint3_linear_3141_37746" x1="859.166" y1="61.8401" x2="861.832" y2="553.939" gradientUnits="userSpaceOnUse">
<stop stop-color="#515151"/>
<stop offset="1" stop-color="#515151" stop-opacity="0"/>
</linearGradient>
<linearGradient id="paint4_linear_3141_37746" x1="871.756" y1="79.9751" x2="874.426" y2="572.669" gradientUnits="userSpaceOnUse">
<stop stop-color="#515151"/>
<stop offset="1" stop-color="#515151" stop-opacity="0"/>
</linearGradient>
<linearGradient id="paint5_linear_3141_37746" x1="884.155" y1="97.7782" x2="886.829" y2="591.344" gradientUnits="userSpaceOnUse">
<stop stop-color="#515151"/>
<stop offset="1" stop-color="#515151" stop-opacity="0"/>
</linearGradient>
<linearGradient id="paint6_linear_3141_37746" x1="896.744" y1="115.437" x2="899.424" y2="610.017" gradientUnits="userSpaceOnUse">
<stop stop-color="#515151"/>
<stop offset="1" stop-color="#515151" stop-opacity="0"/>
</linearGradient>
<linearGradient id="paint7_linear_3141_37746" x1="909.258" y1="133.059" x2="911.944" y2="628.69" gradientUnits="userSpaceOnUse">
<stop stop-color="#515151"/>
<stop offset="1" stop-color="#515151" stop-opacity="0"/>
</linearGradient>
<linearGradient id="paint8_linear_3141_37746" x1="921.771" y1="150.227" x2="924.464" y2="647.364" gradientUnits="userSpaceOnUse">
<stop stop-color="#515151"/>
<stop offset="1" stop-color="#515151" stop-opacity="0"/>
</linearGradient>
<linearGradient id="paint9_linear_3141_37746" x1="934.298" y1="167.284" x2="937" y2="666.008" gradientUnits="userSpaceOnUse">
<stop stop-color="#515151"/>
<stop offset="1" stop-color="#515151" stop-opacity="0"/>
</linearGradient>
<linearGradient id="paint10_linear_3141_37746" x1="946.793" y1="183.979" x2="949.505" y2="684.682" gradientUnits="userSpaceOnUse">
<stop stop-color="#515151"/>
<stop offset="1" stop-color="#515151" stop-opacity="0"/>
</linearGradient>
<linearGradient id="paint11_linear_3141_37746" x1="959.344" y1="200.37" x2="962.069" y2="703.355" gradientUnits="userSpaceOnUse">
<stop stop-color="#515151"/>
<stop offset="1" stop-color="#515151" stop-opacity="0"/>
</linearGradient>
<linearGradient id="paint12_linear_3141_37746" x1="971.822" y1="216.422" x2="974.561" y2="722.029" gradientUnits="userSpaceOnUse">
<stop stop-color="#515151"/>
<stop offset="1" stop-color="#515151" stop-opacity="0"/>
</linearGradient>
<linearGradient id="paint13_linear_3141_37746" x1="984.296" y1="232.111" x2="987.051" y2="740.703" gradientUnits="userSpaceOnUse">
<stop stop-color="#515151"/>
<stop offset="1" stop-color="#515151" stop-opacity="0"/>
</linearGradient>
<linearGradient id="paint14_linear_3141_37746" x1="996.842" y1="247.301" x2="999.616" y2="759.347" gradientUnits="userSpaceOnUse">
<stop stop-color="#515151"/>
<stop offset="1" stop-color="#515151" stop-opacity="0"/>
</linearGradient>
<linearGradient id="paint15_linear_3141_37746" x1="1009.35" y1="261.988" x2="1012.15" y2="778.021" gradientUnits="userSpaceOnUse">
<stop stop-color="#515151"/>
<stop offset="1" stop-color="#515151" stop-opacity="0"/>
</linearGradient>
<linearGradient id="paint16_linear_3141_37746" x1="1021.85" y1="276.102" x2="1024.67" y2="796.694" gradientUnits="userSpaceOnUse">
<stop stop-color="#515151"/>
<stop offset="1" stop-color="#515151" stop-opacity="0"/>
</linearGradient>
<linearGradient id="paint17_linear_3141_37746" x1="1034.28" y1="276.062" x2="1037.2" y2="815.368" gradientUnits="userSpaceOnUse">
<stop stop-color="#515151"/>
<stop offset="1" stop-color="#515151" stop-opacity="0"/>
</linearGradient>
<linearGradient id="paint18_linear_3141_37746" x1="1046.68" y1="274.77" x2="1049.71" y2="834.042" gradientUnits="userSpaceOnUse">
<stop stop-color="#515151"/>
<stop offset="1" stop-color="#515151" stop-opacity="0"/>
</linearGradient>
<linearGradient id="paint19_linear_3141_37746" x1="1059.09" y1="272.582" x2="1062.23" y2="852.715" gradientUnits="userSpaceOnUse">
<stop stop-color="#515151"/>
<stop offset="1" stop-color="#515151" stop-opacity="0"/>
</linearGradient>
<linearGradient id="paint20_linear_3141_37746" x1="1071.47" y1="269.97" x2="1074.73" y2="871.36" gradientUnits="userSpaceOnUse">
<stop stop-color="#515151"/>
<stop offset="1" stop-color="#515151" stop-opacity="0"/>
</linearGradient>
<linearGradient id="paint21_linear_3141_37746" x1="1083.88" y1="266.925" x2="1087.26" y2="890.033" gradientUnits="userSpaceOnUse">
<stop stop-color="#515151"/>
<stop offset="1" stop-color="#515151" stop-opacity="0"/>
</linearGradient>
</defs>
</svg>
