<svg width="108" height="20" viewBox="0 0 108 20" fill="none" xmlns="http://www.w3.org/2000/svg">
<path d="M18.6877 7.60938C18.6095 7.36327 18.4587 7.14654 18.2552 6.98761C18.0516 6.82868 17.8048 6.73496 17.5471 6.71875L12.9065 6.39844L11.1877 2.0625C11.0939 1.82375 10.9305 1.61867 10.7188 1.47382C10.5071 1.32896 10.2567 1.25099 10.0002 1.25C9.74368 1.25099 9.49336 1.32896 9.28164 1.47382C9.06992 1.61867 8.90656 1.82375 8.81271 2.0625L7.06271 6.42188L2.45334 6.71875C2.19592 6.73601 1.9496 6.83012 1.74625 6.9889C1.5429 7.14768 1.39188 7.36383 1.31271 7.60938C1.23141 7.85869 1.22666 8.12664 1.29907 8.37868C1.37148 8.63072 1.51773 8.85529 1.71896 9.02344L5.26584 12.0234L4.21115 16.1719C4.13818 16.4525 4.15131 16.7486 4.24884 17.0217C4.34637 17.2948 4.52378 17.5322 4.75802 17.7031C4.98539 17.8663 5.25628 17.9579 5.53602 17.9663C5.81577 17.9746 6.09164 17.8993 6.32834 17.75L9.9924 15.4297H10.008L13.9533 17.9219C14.1557 18.0534 14.3917 18.1239 14.633 18.125C14.8301 18.1235 15.0242 18.0767 15.2004 17.9884C15.3766 17.9002 15.5302 17.7727 15.6494 17.6157C15.7686 17.4588 15.8502 17.2766 15.888 17.0832C15.9258 16.8898 15.9188 16.6903 15.8674 16.5L14.7502 11.9609L18.2815 9.02344C18.4827 8.85529 18.6289 8.63072 18.7014 8.37868C18.7738 8.12664 18.769 7.85869 18.6877 7.60938Z" fill="#FFC761"/>
<path d="M40.6877 7.60938C40.6095 7.36327 40.4587 7.14654 40.2552 6.98761C40.0516 6.82868 39.8048 6.73496 39.5471 6.71875L34.9065 6.39844L33.1877 2.0625C33.0939 1.82375 32.9305 1.61867 32.7188 1.47382C32.5071 1.32896 32.2567 1.25099 32.0002 1.25C31.7437 1.25099 31.4934 1.32896 31.2816 1.47382C31.0699 1.61867 30.9066 1.82375 30.8127 2.0625L29.0627 6.42188L24.4533 6.71875C24.1959 6.73601 23.9496 6.83012 23.7463 6.9889C23.5429 7.14768 23.3919 7.36383 23.3127 7.60938C23.2314 7.85869 23.2267 8.12664 23.2991 8.37868C23.3715 8.63072 23.5177 8.85529 23.719 9.02344L27.2658 12.0234L26.2111 16.1719C26.1382 16.4525 26.1513 16.7486 26.2488 17.0217C26.3464 17.2948 26.5238 17.5322 26.758 17.7031C26.9854 17.8663 27.2563 17.9579 27.536 17.9663C27.8158 17.9746 28.0916 17.8993 28.3283 17.75L31.9924 15.4297H32.008L35.9533 17.9219C36.1557 18.0534 36.3917 18.1239 36.633 18.125C36.8301 18.1235 37.0242 18.0767 37.2004 17.9884C37.3766 17.9002 37.5302 17.7727 37.6494 17.6157C37.7686 17.4588 37.8502 17.2766 37.888 17.0832C37.9258 16.8898 37.9188 16.6903 37.8674 16.5L36.7502 11.9609L40.2815 9.02344C40.4827 8.85529 40.6289 8.63072 40.7014 8.37868C40.7738 8.12664 40.769 7.85869 40.6877 7.60938Z" fill="#FFC761"/>
<path d="M62.6877 7.60938C62.6095 7.36327 62.4587 7.14654 62.2552 6.98761C62.0516 6.82868 61.8048 6.73496 61.5471 6.71875L56.9065 6.39844L55.1877 2.0625C55.0939 1.82375 54.9305 1.61867 54.7188 1.47382C54.5071 1.32896 54.2567 1.25099 54.0002 1.25C53.7437 1.25099 53.4934 1.32896 53.2816 1.47382C53.0699 1.61867 52.9066 1.82375 52.8127 2.0625L51.0627 6.42188L46.4533 6.71875C46.1959 6.73601 45.9496 6.83012 45.7463 6.9889C45.5429 7.14768 45.3919 7.36383 45.3127 7.60938C45.2314 7.85869 45.2267 8.12664 45.2991 8.37868C45.3715 8.63072 45.5177 8.85529 45.719 9.02344L49.2658 12.0234L48.2111 16.1719C48.1382 16.4525 48.1513 16.7486 48.2488 17.0217C48.3464 17.2948 48.5238 17.5322 48.758 17.7031C48.9854 17.8663 49.2563 17.9579 49.536 17.9663C49.8158 17.9746 50.0916 17.8993 50.3283 17.75L53.9924 15.4297H54.008L57.9533 17.9219C58.1557 18.0534 58.3917 18.1239 58.633 18.125C58.8301 18.1235 59.0242 18.0767 59.2004 17.9884C59.3766 17.9002 59.5302 17.7727 59.6494 17.6157C59.7686 17.4588 59.8502 17.2766 59.888 17.0832C59.9258 16.8898 59.9188 16.6903 59.8674 16.5L58.7502 11.9609L62.2815 9.02344C62.4827 8.85529 62.6289 8.63072 62.7014 8.37868C62.7738 8.12664 62.769 7.85869 62.6877 7.60938Z" fill="#FFC761"/>
<path d="M84.6877 7.60938C84.6095 7.36327 84.4587 7.14654 84.2552 6.98761C84.0516 6.82868 83.8048 6.73496 83.5471 6.71875L78.9065 6.39844L77.1877 2.0625C77.0939 1.82375 76.9305 1.61867 76.7188 1.47382C76.5071 1.32896 76.2567 1.25099 76.0002 1.25C75.7437 1.25099 75.4934 1.32896 75.2816 1.47382C75.0699 1.61867 74.9066 1.82375 74.8127 2.0625L73.0627 6.42188L68.4533 6.71875C68.1959 6.73601 67.9496 6.83012 67.7463 6.9889C67.5429 7.14768 67.3919 7.36383 67.3127 7.60938C67.2314 7.85869 67.2267 8.12664 67.2991 8.37868C67.3715 8.63072 67.5177 8.85529 67.719 9.02344L71.2658 12.0234L70.2111 16.1719C70.1382 16.4525 70.1513 16.7486 70.2488 17.0217C70.3464 17.2948 70.5238 17.5322 70.758 17.7031C70.9854 17.8663 71.2563 17.9579 71.536 17.9663C71.8158 17.9746 72.0916 17.8993 72.3283 17.75L75.9924 15.4297H76.008L79.9533 17.9219C80.1557 18.0534 80.3917 18.1239 80.633 18.125C80.8301 18.1235 81.0242 18.0767 81.2004 17.9884C81.3766 17.9002 81.5302 17.7727 81.6494 17.6157C81.7686 17.4588 81.8502 17.2766 81.888 17.0832C81.9258 16.8898 81.9188 16.6903 81.8674 16.5L80.7502 11.9609L84.2815 9.02344C84.4827 8.85529 84.6289 8.63072 84.7014 8.37868C84.7738 8.12664 84.769 7.85869 84.6877 7.60938Z" fill="#FFC761"/>
<path d="M106.688 7.60946C106.609 7.36335 106.459 7.14662 106.255 6.98769C106.052 6.82876 105.805 6.73505 105.547 6.71883L100.938 6.42196C100.931 6.42114 100.924 6.41854 100.919 6.41443C100.913 6.41031 100.909 6.40483 100.906 6.39852L99.1877 2.06258C99.0949 1.82302 98.9319 1.61712 98.7199 1.47192C98.508 1.32672 98.2571 1.24902 98.0002 1.24902C97.7433 1.24902 97.4924 1.32672 97.2805 1.47192C97.0685 1.61712 96.9055 1.82302 96.8127 2.06258L95.094 6.39852C95.0913 6.40483 95.087 6.41031 95.0815 6.41443C95.076 6.41854 95.0695 6.42114 95.0627 6.42196L90.4533 6.71883C90.1956 6.73505 89.9488 6.82876 89.7452 6.98769C89.5417 7.14662 89.3909 7.36335 89.3127 7.60946C89.2314 7.85877 89.2267 8.12672 89.2991 8.37876C89.3715 8.6308 89.5177 8.85537 89.719 9.02352L93.2502 11.961C93.2582 11.969 93.2639 11.9791 93.2667 11.9901C93.2695 12.0011 93.2692 12.0127 93.2658 12.0235L92.2111 16.172C92.1393 16.4526 92.1529 16.7484 92.2504 17.0212C92.3478 17.2941 92.5246 17.5316 92.758 17.7032C92.9854 17.8664 93.2563 17.958 93.536 17.9664C93.8158 17.9747 94.0916 17.8994 94.3283 17.7501L97.9924 15.4298H98.008L101.953 17.922C102.156 18.0535 102.392 18.124 102.633 18.1251C102.899 18.1215 103.158 18.037 103.375 17.8829C103.587 17.7291 103.748 17.5147 103.836 17.2678C103.924 17.021 103.935 16.7533 103.867 16.5001L102.735 12.0235C102.731 12.0127 102.731 12.0011 102.734 11.9901C102.736 11.9791 102.742 11.969 102.75 11.961L106.281 9.02352C106.483 8.85537 106.629 8.6308 106.701 8.37876C106.774 8.12672 106.769 7.85877 106.688 7.60946ZM105.485 8.06258L101.946 11.0001C101.758 11.1595 101.618 11.3687 101.544 11.6035C101.469 11.8384 101.462 12.0896 101.524 12.3282L102.656 16.8048C102.664 16.836 102.664 16.8438 102.656 16.8516C102.651 16.8617 102.643 16.8699 102.633 16.8751H102.617L98.6799 14.3751C98.4769 14.2459 98.2409 14.1781 98.0002 14.1798V2.50008C98.008 2.50008 98.0158 2.50008 98.0237 2.52352L99.7502 6.85946C99.8382 7.08518 99.9884 7.28133 100.183 7.42514C100.378 7.56895 100.61 7.65453 100.852 7.67196L105.469 7.96883C105.477 7.96883 105.485 7.96883 105.492 8.00008C105.5 8.03133 105.492 8.05477 105.485 8.06258Z" fill="#FFC761"/>
</svg>
