<svg width="64" height="64" viewBox="0 0 64 64" fill="none" xmlns="http://www.w3.org/2000/svg">
<path fill-rule="evenodd" clip-rule="evenodd" d="M32 2.69917e-06C14.3269 3.08543e-06 -3.11028e-06 13.1898 -2.75468e-06 29.4603L-1.99979e-06 64H22.0689V51.8094H41.931V64H63.9999V29.4603C63.9999 13.1898 49.673 2.31292e-06 32 2.69917e-06ZM41.931 31.492V29.4603C41.931 24.4109 37.4847 20.3175 32 20.3175C26.5152 20.3175 22.0689 24.4109 22.0689 29.4603V31.492H41.931Z" fill="#1C1C1C"/>
<path fill-rule="evenodd" clip-rule="evenodd" d="M63.9999 51.4747C62.3795 51.6953 60.7215 51.8096 59.0345 51.8096C44.5186 51.8096 32.1491 43.349 27.4268 31.492H41.931V29.4603C41.931 24.4109 37.4847 20.3175 32 20.3175C29.4826 20.3175 27.1841 21.1797 25.4337 22.601C25.3977 22.0134 25.3794 21.4214 25.3794 20.8255C25.3794 12.8369 28.6633 5.55444 34.056 0.0598344C50.771 1.03567 63.9999 13.8257 63.9999 29.4603L63.9999 51.4747Z" fill="#7C7C7C"/>
<mask id="mask0_1599_24040" style="mask-type:alpha" maskUnits="userSpaceOnUse" x="0" y="0" width="64" height="64">
<path fill-rule="evenodd" clip-rule="evenodd" d="M32 0C14.3269 3.86258e-07 -3.55603e-07 13.1898 0 29.4603L7.54889e-07 64H22.0689V51.8094H41.931V64H63.9999L63.9999 29.4603C63.9999 13.1898 49.673 -3.86258e-07 32 0ZM41.931 31.492V29.4603C41.931 24.4109 37.4847 20.3175 32 20.3175C26.5152 20.3175 22.0689 24.4109 22.0689 29.4603V31.492H41.931Z" fill="#7167F0"/>
</mask>
<g mask="url(#mask0_1599_24040)">
<path d="M64 51.4745C62.3796 51.6951 60.7216 51.8094 59.0345 51.8094C44.5187 51.8094 32.1492 43.3488 27.4269 31.4919C27.3908 30.9042 25.3794 26.9205 25.3794 20.8252C25.3794 12.8367 30.4694 -0.0928653 35.8621 -5.58746" stroke="#252525" stroke-width="2.93428" stroke-linecap="round" stroke-linejoin="bevel"/>
</g>
</svg>
